<svg width="104" height="104" viewBox="0 0 104 104" fill="none" xmlns="http://www.w3.org/2000/svg">
<g filter="url(#filter0_d)">
<path d="M52.1895 2.11839C77.2911 2.11839 97.7586 22.5859 97.7586 47.6875C97.7586 72.7891 77.2911 93.1279 52.1895 93.1279C27.0878 93.1279 6.62035 72.6604 6.62035 47.5588C6.62035 22.4571 27.0878 2.11839 52.1895 2.11839ZM52.1895 0.1875C25.9293 0.1875 4.68945 21.4273 4.68945 47.6875C4.68945 73.9477 25.9293 95.1875 52.1895 95.1875C78.4496 95.1875 99.6895 73.9477 99.6895 47.6875C99.6895 21.4273 78.3209 0.1875 52.1895 0.1875Z" fill="#676767"/>
<path d="M40.4752 47.1726L27.0877 70.0859H53.734L40.4752 47.1726Z" fill="#009688" stroke="#676767" stroke-width="1.5" stroke-miterlimit="10" stroke-linecap="round" stroke-linejoin="round"/>
<path d="M45.6245 56.1832L58.2397 34.0422L79.0933 70.0856H53.7342" fill="#009688"/>
<path d="M45.6245 56.1832L58.2397 34.0422L79.0933 70.0856H53.7342" stroke="#676767" stroke-width="1.5" stroke-miterlimit="10" stroke-linecap="round" stroke-linejoin="round"/>
<path d="M62.3589 48.9746L68.7952 61.7185" stroke="#676767" stroke-width="1.5" stroke-miterlimit="10" stroke-linecap="round" stroke-linejoin="round"/>
<path d="M58.2397 34.0427V21.5562H71.8847L68.1516 24.6456L71.8847 28.1213L58.6259 27.8638" fill="#F28317"/>
<path d="M58.2397 34.0427V21.5562H71.8847L68.1516 24.6456L71.8847 28.1213L58.6259 27.8638" stroke="#676767" stroke-width="1.5" stroke-miterlimit="10" stroke-linecap="round" stroke-linejoin="round"/>
</g>
<defs>
<filter id="filter0_d" x="0.689453" y="0.1875" width="103" height="103" filterUnits="userSpaceOnUse" color-interpolation-filters="sRGB">
<feFlood flood-opacity="0" result="BackgroundImageFix"/>
<feColorMatrix in="SourceAlpha" type="matrix" values="0 0 0 0 0 0 0 0 0 0 0 0 0 0 0 0 0 0 127 0"/>
<feOffset dy="4"/>
<feGaussianBlur stdDeviation="2"/>
<feColorMatrix type="matrix" values="0 0 0 0 0 0 0 0 0 0 0 0 0 0 0 0 0 0 0.25 0"/>
<feBlend mode="normal" in2="BackgroundImageFix" result="effect1_dropShadow"/>
<feBlend mode="normal" in="SourceGraphic" in2="effect1_dropShadow" result="shape"/>
</filter>
</defs>
</svg>
